<?xml version="1.0" standalone="no"?>
<!DOCTYPE svg PUBLIC "-//W3C//DTD SVG 20010904//EN"
 "http://www.w3.org/TR/2001/REC-SVG-20010904/DTD/svg10.dtd">
<svg version="1.0" xmlns="http://www.w3.org/2000/svg"
 width="50.000000pt" height="50.000000pt" viewBox="0 0 50.000000 50.000000"
 preserveAspectRatio="xMidYMid meet">

<g transform="translate(0.000000,50.000000) scale(0.100000,-0.100000)"
fill="#000000" stroke="none">
<path d="M180 399 c0 -5 5 -7 10 -4 6 3 10 8 10 11 0 2 -4 4 -10 4 -5 0 -10
-5 -10 -11z"/>
<path d="M196 369 c-22 -10 -45 -19 -53 -19 -8 0 -5 -8 9 -25 24 -28 38 -24
38 11 0 28 15 32 29 7 12 -23 23 -12 19 20 l-3 25 -39 -19z"/>
<path d="M318 346 c-20 -6 -40 -15 -45 -20 -5 -5 -1 -7 9 -3 9 3 35 11 57 17
23 6 41 13 41 15 0 7 -21 4 -62 -9z"/>
<path d="M80 303 c-19 -3 -39 -8 -44 -13 -11 -11 62 -1 84 11 8 5 11 8 5 7 -5
-1 -26 -3 -45 -5z"/>
<path d="M306 279 c35 -39 44 -65 44 -122 0 -80 -21 -102 -97 -101 -83 0 -111
10 -133 47 -26 42 -25 64 4 120 13 26 20 47 16 47 -13 0 -50 -84 -50 -114 0
-39 29 -83 63 -97 16 -7 61 -13 99 -13 62 -1 72 2 89 23 41 50 12 213 -41 229
-10 3 -8 -3 6 -19z"/>
<path d="M213 213 c9 -2 25 -2 35 0 9 3 1 5 -18 5 -19 0 -27 -2 -17 -5z"/>
<path d="M181 174 c-32 -41 -26 -65 22 -83 49 -19 67 -14 82 23 18 42 12 59
-21 75 -39 17 -61 13 -83 -15z"/>
</g>
</svg>
